<?xml version="1.0" encoding="UTF-8"?>
<mxfile host="app.diagrams.net" modified="2024-01-01T00:00:00.000Z" agent="5.0" etag="xxx" version="22.1.16" type="device">
  <diagram name="Agent工作流程详细版" id="agent-workflow-detailed">
    <mxGraphModel dx="1422" dy="794" grid="1" gridSize="10" guides="1" tooltips="1" connect="1" arrows="1" fold="1" page="1" pageScale="1" pageWidth="1400" pageHeight="1000" math="0" shadow="0">
      <root>
        <mxCell id="0" />
        <mxCell id="1" parent="0" />
        
        <!-- 主标题 -->
        <mxCell id="title" value="Agent工作流程与多Agent交互机制详细图" style="text;html=1;strokeColor=none;fillColor=none;align=center;verticalAlign=middle;whiteSpace=wrap;rounded=0;fontSize=24;fontStyle=1;" vertex="1" parent="1">
          <mxGeometry x="500" y="20" width="400" height="40" as="geometry" />
        </mxCell>
        
        <!-- 单Agent工作流程 -->
        <mxCell id="single-agent-title" value="单Agent工作流程 (Perceive-Decide-Act Loop)" style="text;html=1;strokeColor=none;fillColor=none;align=center;verticalAlign=middle;whiteSpace=wrap;rounded=0;fontSize=18;fontStyle=1;" vertex="1" parent="1">
          <mxGeometry x="50" y="80" width="400" height="30" as="geometry" />
        </mxCell>
        
        <!-- 感知阶段 -->
        <mxCell id="perception" value="感知阶段&#xa;(Perception)" style="rounded=1;whiteSpace=wrap;html=1;fillColor=#e1d5e7;strokeColor=#9673a6;fontSize=14;fontStyle=1;" vertex="1" parent="1">
          <mxGeometry x="50" y="130" width="150" height="80" as="geometry" />
        </mxCell>
        
        <!-- 决策阶段 -->
        <mxCell id="decision" value="决策阶段&#xa;(Decision)" style="rounded=1;whiteSpace=wrap;html=1;fillColor=#d5e8d4;strokeColor=#82b366;fontSize=14;fontStyle=1;" vertex="1" parent="1">
          <mxGeometry x="250" y="130" width="150" height="80" as="geometry" />
        </mxCell>
        
        <!-- 执行阶段 -->
        <mxCell id="action" value="执行阶段&#xa;(Action)" style="rounded=1;whiteSpace=wrap;html=1;fillColor=#dae8fc;strokeColor=#6c8ebf;fontSize=14;fontStyle=1;" vertex="1" parent="1">
          <mxGeometry x="450" y="130" width="150" height="80" as="geometry" />
        </mxCell>
        
        <!-- 反馈循环 -->
        <mxCell id="feedback" value="环境反馈&#xa;(Environment)" style="rounded=1;whiteSpace=wrap;html=1;fillColor=#fff2cc;strokeColor=#d6b656;fontSize=14;fontStyle=1;" vertex="1" parent="1">
          <mxGeometry x="650" y="130" width="150" height="80" as="geometry" />
        </mxCell>
        
        <!-- 箭头连接 -->
        <mxCell id="arrow1" value="" style="endArrow=classic;html=1;rounded=0;exitX=1;exitY=0.5;exitDx=0;exitDy=0;entryX=0;entryY=0.5;entryDx=0;entryDy=0;strokeWidth=2;" edge="1" parent="1" source="perception" target="decision">
          <mxGeometry width="50" height="50" relative="1" as="geometry">
            <mxPoint x="290" y="290" as="sourcePoint" />
            <mxPoint x="340" y="240" as="targetPoint" />
          </mxGeometry>
        </mxCell>
        
        <mxCell id="arrow2" value="" style="endArrow=classic;html=1;rounded=0;exitX=1;exitY=0.5;exitDx=0;exitDy=0;entryX=0;entryY=0.5;entryDx=0;entryDy=0;strokeWidth=2;" edge="1" parent="1" source="decision" target="action">
          <mxGeometry width="50" height="50" relative="1" as="geometry">
            <mxPoint x="290" y="290" as="sourcePoint" />
            <mxPoint x="340" y="240" as="targetPoint" />
          </mxGeometry>
        </mxCell>
        
        <mxCell id="arrow3" value="" style="endArrow=classic;html=1;rounded=0;exitX=1;exitY=0.5;exitDx=0;exitDy=0;entryX=0;entryY=0.5;entryDx=0;entryDy=0;strokeWidth=2;" edge="1" parent="1" source="action" target="feedback">
          <mxGeometry width="50" height="50" relative="1" as="geometry">
            <mxPoint x="290" y="290" as="sourcePoint" />
            <mxPoint x="340" y="240" as="targetPoint" />
          </mxGeometry>
        </mxCell>
        
        <!-- 反馈循环箭头 -->
        <mxCell id="feedback-arrow" value="" style="endArrow=classic;html=1;rounded=0;exitX=0.5;exitY=0;exitDx=0;exitDy=0;entryX=0.5;entryY=1;entryDx=0;entryDy=0;strokeWidth=2;strokeColor=#d6b656;" edge="1" parent="1" source="feedback" target="perception">
          <mxGeometry width="50" height="50" relative="1" as="geometry">
            <mxPoint x="290" y="290" as="sourcePoint" />
            <mxPoint x="340" y="240" as="targetPoint" />
          </mxGeometry>
        </mxCell>
        
        <!-- 详细步骤 -->
        <mxCell id="perception-details" value="• 接收输入 (文本/图像/音频)&#xa;• 状态理解 (环境分析)&#xa;• 信息提取 (关键特征)&#xa;• 上下文整合" style="text;html=1;strokeColor=none;fillColor=none;align=left;verticalAlign=top;whiteSpace=wrap;rounded=0;fontSize=11;" vertex="1" parent="1">
          <mxGeometry x="50" y="220" width="150" height="80" as="geometry" />
        </mxCell>
        
        <mxCell id="decision-details" value="• 任务分解 (子任务拆分)&#xa;• 策略选择 (最优方案)&#xa;• 风险评估 (后果分析)&#xa;• 工具选择 (能力匹配)" style="text;html=1;strokeColor=none;fillColor=none;align=left;verticalAlign=top;whiteSpace=wrap;rounded=0;fontSize=11;" vertex="1" parent="1">
          <mxGeometry x="250" y="220" width="150" height="80" as="geometry" />
        </mxCell>
        
        <mxCell id="action-details" value="• 工具调用 (API/函数)&#xa;• 结果验证 (质量检查)&#xa;• 状态更新 (环境变化)&#xa;• 错误处理 (异常恢复)" style="text;html=1;strokeColor=none;fillColor=none;align=left;verticalAlign=top;whiteSpace=wrap;rounded=0;fontSize=11;" vertex="1" parent="1">
          <mxGeometry x="450" y="220" width="150" height="80" as="geometry" />
        </mxCell>
        
        <mxCell id="feedback-details" value="• 环境响应 (执行结果)&#xa;• 状态变化 (新环境)&#xa;• 奖励信号 (成功/失败)&#xa;• 学习反馈 (经验积累)" style="text;html=1;strokeColor=none;fillColor=none;align=left;verticalAlign=top;whiteSpace=wrap;rounded=0;fontSize=11;" vertex="1" parent="1">
          <mxGeometry x="650" y="220" width="150" height="80" as="geometry" />
        </mxCell>
        
        <!-- 多Agent交互 -->
        <mxCell id="multi-agent-title" value="多Agent交互机制" style="text;html=1;strokeColor=none;fillColor=none;align=center;verticalAlign=middle;whiteSpace=wrap;rounded=0;fontSize=18;fontStyle=1;" vertex="1" parent="1">
          <mxGeometry x="900" y="80" width="300" height="30" as="geometry" />
        </mxCell>
        
        <!-- Coordinator Agent -->
        <mxCell id="coordinator" value="Coordinator Agent&#xa;(协调者)" style="rounded=1;whiteSpace=wrap;html=1;fillColor=#f8cecc;strokeColor=#b85450;fontSize=14;fontStyle=1;" vertex="1" parent="1">
          <mxGeometry x="900" y="130" width="150" height="80" as="geometry" />
        </mxCell>
        
        <!-- Specialist Agents -->
        <mxCell id="specialist1" value="Specialist Agent 1&#xa;(专业Agent)" style="rounded=1;whiteSpace=wrap;html=1;fillColor=#d5e8d4;strokeColor=#82b366;fontSize=12;" vertex="1" parent="1">
          <mxGeometry x="800" y="280" width="120" height="60" as="geometry" />
        </mxCell>
        
        <mxCell id="specialist2" value="Specialist Agent 2&#xa;(专业Agent)" style="rounded=1;whiteSpace=wrap;html=1;fillColor=#dae8fc;strokeColor=#6c8ebf;fontSize=12;" vertex="1" parent="1">
          <mxGeometry x="950" y="280" width="120" height="60" as="geometry" />
        </mxCell>
        
        <mxCell id="specialist3" value="Specialist Agent 3&#xa;(专业Agent)" style="rounded=1;whiteSpace=wrap;html=1;fillColor=#e1d5e7;strokeColor=#9673a6;fontSize=12;" vertex="1" parent="1">
          <mxGeometry x="1100" y="280" width="120" height="60" as="geometry" />
        </mxCell>
        
        <!-- 连接线 -->
        <mxCell id="coord-spec1" value="" style="endArrow=classic;html=1;rounded=0;exitX=0;exitY=0.5;exitDx=0;exitDy=0;entryX=0.5;entryY=0;entryDx=0;entryDy=0;strokeWidth=2;" edge="1" parent="1" source="coordinator" target="specialist1">
          <mxGeometry width="50" height="50" relative="1" as="geometry">
            <mxPoint x="290" y="290" as="sourcePoint" />
            <mxPoint x="340" y="240" as="targetPoint" />
          </mxGeometry>
        </mxCell>
        
        <mxCell id="coord-spec2" value="" style="endArrow=classic;html=1;rounded=0;exitX=0.5;exitY=1;exitDx=0;exitDy=0;entryX=0.5;entryY=0;entryDx=0;entryDy=0;strokeWidth=2;" edge="1" parent="1" source="coordinator" target="specialist2">
          <mxGeometry width="50" height="50" relative="1" as="geometry">
            <mxPoint x="290" y="290" as="sourcePoint" />
            <mxPoint x="340" y="240" as="targetPoint" />
          </mxGeometry>
        </mxCell>
        
        <mxCell id="coord-spec3" value="" style="endArrow=classic;html=1;rounded=0;exitX=1;exitY=0.5;exitDx=0;exitDy=0;entryX=0.5;entryY=0;entryDx=0;entryDy=0;strokeWidth=2;" edge="1" parent="1" source="coordinator" target="specialist3">
          <mxGeometry width="50" height="50" relative="1" as="geometry">
            <mxPoint x="290" y="290" as="sourcePoint" />
            <mxPoint x="340" y="240" as="targetPoint" />
          </mxGeometry>
        </mxCell>
        
        <!-- 通信机制 -->
        <mxCell id="communication" value="通信机制&#xa;(Communication)" style="rounded=1;whiteSpace=wrap;html=1;fillColor=#fff2cc;strokeColor=#d6b656;fontSize=12;" vertex="1" parent="1">
          <mxGeometry x="950" y="380" width="120" height="60" as="geometry" />
        </mxCell>
        
        <mxCell id="comm-arrow1" value="" style="endArrow=classic;html=1;rounded=0;exitX=0.5;exitY=1;exitDx=0;exitDy=0;entryX=0;entryY=0.5;entryDx=0;entryDy=0;" edge="1" parent="1" source="specialist1" target="communication">
          <mxGeometry width="50" height="50" relative="1" as="geometry">
            <mxPoint x="290" y="290" as="sourcePoint" />
            <mxPoint x="340" y="240" as="targetPoint" />
          </mxGeometry>
        </mxCell>
        
        <mxCell id="comm-arrow2" value="" style="endArrow=classic;html=1;rounded=0;exitX=0.5;exitY=1;exitDx=0;exitDy=0;entryX=0.5;entryY=0;entryDx=0;entryDy=0;" edge="1" parent="1" source="specialist2" target="communication">
          <mxGeometry width="50" height="50" relative="1" as="geometry">
            <mxPoint x="290" y="290" as="sourcePoint" />
            <mxPoint x="340" y="240" as="targetPoint" />
          </mxGeometry>
        </mxCell>
        
        <mxCell id="comm-arrow3" value="" style="endArrow=classic;html=1;rounded=0;exitX=0.5;exitY=1;exitDx=0;exitDy=0;entryX=1;entryY=0.5;entryDx=0;entryDy=0;" edge="1" parent="1" source="specialist3" target="communication">
          <mxGeometry width="50" height="50" relative="1" as="geometry">
            <mxPoint x="290" y="290" as="sourcePoint" />
            <mxPoint x="340" y="240" as="targetPoint" />
          </mxGeometry>
        </mxCell>
        
        <!-- 通信详情 -->
        <mxCell id="comm-details" value="• 消息传递 (Message Passing)&#xa;• 状态同步 (State Sync)&#xa;• 事件驱动 (Event Driven)&#xa;• 共享内存 (Shared Memory)" style="text;html=1;strokeColor=none;fillColor=none;align=left;verticalAlign=top;whiteSpace=wrap;rounded=0;fontSize=10;" vertex="1" parent="1">
          <mxGeometry x="900" y="460" width="200" height="80" as="geometry" />
        </mxCell>
        
        <!-- 实际应用场景 -->
        <mxCell id="scenarios-title" value="实际应用场景" style="text;html=1;strokeColor=none;fillColor=none;align=center;verticalAlign=middle;whiteSpace=wrap;rounded=0;fontSize=18;fontStyle=1;" vertex="1" parent="1">
          <mxGeometry x="50" y="350" width="200" height="30" as="geometry" />
        </mxCell>
        
        <!-- 软件开发团队 -->
        <mxCell id="dev-team" value="软件开发团队" style="rounded=1;whiteSpace=wrap;html=1;fillColor=#e1d5e7;strokeColor=#9673a6;fontSize=14;fontStyle=1;" vertex="1" parent="1">
          <mxGeometry x="50" y="400" width="150" height="60" as="geometry" />
        </mxCell>
        
        <mxCell id="pm-agent" value="PM Agent&#xa;(产品经理)" style="rounded=1;whiteSpace=wrap;html=1;fillColor=#d5e8d4;strokeColor=#82b366;fontSize=10;" vertex="1" parent="1">
          <mxGeometry x="50" y="480" width="80" height="50" as="geometry" />
        </mxCell>
        
        <mxCell id="arch-agent" value="Arch Agent&#xa;(架构师)" style="rounded=1;whiteSpace=wrap;html=1;fillColor=#dae8fc;strokeColor=#6c8ebf;fontSize=10;" vertex="1" parent="1">
          <mxGeometry x="150" y="480" width="80" height="50" as="geometry" />
        </mxCell>
        
        <mxCell id="dev-agent" value="Dev Agent&#xa;(开发者)" style="rounded=1;whiteSpace=wrap;html=1;fillColor=#fff2cc;strokeColor=#d6b656;fontSize=10;" vertex="1" parent="1">
          <mxGeometry x="250" y="480" width="80" height="50" as="geometry" />
        </mxCell>
        
        <mxCell id="test-agent" value="Test Agent&#xa;(测试员)" style="rounded=1;whiteSpace=wrap;html=1;fillColor=#f8cecc;strokeColor=#b85450;fontSize=10;" vertex="1" parent="1">
          <mxGeometry x="350" y="480" width="80" height="50" as="geometry" />
        </mxCell>
        
        <!-- 智能客服系统 -->
        <mxCell id="customer-service" value="智能客服系统" style="rounded=1;whiteSpace=wrap;html=1;fillColor=#e1d5e7;strokeColor=#9673a6;fontSize=14;fontStyle=1;" vertex="1" parent="1">
          <mxGeometry x="500" y="400" width="150" height="60" as="geometry" />
        </mxCell>
        
        <mxCell id="reception-agent" value="Reception Agent&#xa;(接待员)" style="rounded=1;whiteSpace=wrap;html=1;fillColor=#d5e8d4;strokeColor=#82b366;fontSize=10;" vertex="1" parent="1">
          <mxGeometry x="500" y="480" width="100" height="50" as="geometry" />
        </mxCell>
        
        <mxCell id="expert-agent" value="Expert Agent&#xa;(专家)" style="rounded=1;whiteSpace=wrap;html=1;fillColor=#dae8fc;strokeColor=#6c8ebf;fontSize=10;" vertex="1" parent="1">
          <mxGeometry x="620" y="480" width="100" height="50" as="geometry" />
        </mxCell>
        
        <mxCell id="escalation-agent" value="Escalation Agent&#xa;(升级处理)" style="rounded=1;whiteSpace=wrap;html=1;fillColor=#fff2cc;strokeColor=#d6b656;fontSize=10;" vertex="1" parent="1">
          <mxGeometry x="740" y="480" width="100" height="50" as="geometry" />
        </mxCell>
        
        <!-- 技术实现 -->
        <mxCell id="tech-title" value="技术实现" style="text;html=1;strokeColor=none;fillColor=none;align=center;verticalAlign=middle;whiteSpace=wrap;rounded=0;fontSize=18;fontStyle=1;" vertex="1" parent="1">
          <mxGeometry x="50" y="600" width="200" height="30" as="geometry" />
        </mxCell>
        
        <!-- 关键技术 -->
        <mxCell id="key-tech1" value="消息队列&#xa;(Message Queue)" style="rounded=1;whiteSpace=wrap;html=1;fillColor=#d5e8d4;strokeColor=#82b366;fontSize=12;" vertex="1" parent="1">
          <mxGeometry x="50" y="650" width="120" height="50" as="geometry" />
        </mxCell>
        
        <mxCell id="key-tech2" value="分布式锁&#xa;(Distributed Lock)" style="rounded=1;whiteSpace=wrap;html=1;fillColor=#dae8fc;strokeColor=#6c8ebf;fontSize=12;" vertex="1" parent="1">
          <mxGeometry x="190" y="650" width="120" height="50" as="geometry" />
        </mxCell>
        
        <mxCell id="key-tech3" value="事件驱动&#xa;(Event Driven)" style="rounded=1;whiteSpace=wrap;html=1;fillColor=#fff2cc;strokeColor=#d6b656;fontSize=12;" vertex="1" parent="1">
          <mxGeometry x="330" y="650" width="120" height="50" as="geometry" />
        </mxCell>
        
        <mxCell id="key-tech4" value="微服务架构&#xa;(Microservices)" style="rounded=1;whiteSpace=wrap;html=1;fillColor=#f8cecc;strokeColor=#b85450;fontSize=12;" vertex="1" parent="1">
          <mxGeometry x="470" y="650" width="120" height="50" as="geometry" />
        </mxCell>
        
        <mxCell id="key-tech5" value="监控告警&#xa;(Monitoring)" style="rounded=1;whiteSpace=wrap;html=1;fillColor=#e1d5e7;strokeColor=#9673a6;fontSize=12;" vertex="1" parent="1">
          <mxGeometry x="610" y="650" width="120" height="50" as="geometry" />
        </mxCell>
        
        <mxCell id="key-tech6" value="负载均衡&#xa;(Load Balancing)" style="rounded=1;whiteSpace=wrap;html=1;fillColor=#d5e8d4;strokeColor=#82b366;fontSize=12;" vertex="1" parent="1">
          <mxGeometry x="750" y="650" width="120" height="50" as="geometry" />
        </mxCell>
        
        <!-- 挑战与解决方案 -->
        <mxCell id="challenges-title" value="挑战与解决方案" style="text;html=1;strokeColor=none;fillColor=none;align=center;verticalAlign=middle;whiteSpace=wrap;rounded=0;fontSize=18;fontStyle=1;" vertex="1" parent="1">
          <mxGeometry x="50" y="750" width="200" height="30" as="geometry" />
        </mxCell>
        
        <mxCell id="challenge1" value="状态一致性&#xa;(State Consistency)" style="rounded=1;whiteSpace=wrap;html=1;fillColor=#f8cecc;strokeColor=#b85450;fontSize=12;" vertex="1" parent="1">
          <mxGeometry x="50" y="800" width="140" height="50" as="geometry" />
        </mxCell>
        
        <mxCell id="solution1" value="分布式锁 + 事务管理&#xa;(Distributed Lock + Transaction)" style="rounded=1;whiteSpace=wrap;html=1;fillColor=#d5e8d4;strokeColor=#82b366;fontSize=12;" vertex="1" parent="1">
          <mxGeometry x="210" y="800" width="180" height="50" as="geometry" />
        </mxCell>
        
        <mxCell id="challenge2" value="死锁避免&#xa;(Deadlock Prevention)" style="rounded=1;whiteSpace=wrap;html=1;fillColor=#f8cecc;strokeColor=#b85450;fontSize=12;" vertex="1" parent="1">
          <mxGeometry x="50" y="870" width="140" height="50" as="geometry" />
        </mxCell>
        
        <mxCell id="solution2" value="资源分配图 + 超时机制&#xa;(Resource Graph + Timeout)" style="rounded=1;whiteSpace=wrap;html=1;fillColor=#d5e8d4;strokeColor=#82b366;fontSize=12;" vertex="1" parent="1">
          <mxGeometry x="210" y="870" width="180" height="50" as="geometry" />
        </mxCell>
        
        <mxCell id="challenge3" value="性能优化&#xa;(Performance)" style="rounded=1;whiteSpace=wrap;html=1;fillColor=#f8cecc;strokeColor=#b85450;fontSize=12;" vertex="1" parent="1">
          <mxGeometry x="50" y="940" width="140" height="50" as="geometry" />
        </mxCell>
        
        <mxCell id="solution3" value="异步处理 + 连接池&#xa;(Async + Connection Pool)" style="rounded=1;whiteSpace=wrap;html=1;fillColor=#d5e8d4;strokeColor=#82b366;fontSize=12;" vertex="1" parent="1">
          <mxGeometry x="210" y="940" width="180" height="50" as="geometry" />
        </mxCell>
        
        <!-- 箭头连接挑战和解决方案 -->
        <mxCell id="challenge-arrow1" value="" style="endArrow=classic;html=1;rounded=0;exitX=1;exitY=0.5;exitDx=0;exitDy=0;entryX=0;entryY=0.5;entryDx=0;entryDy=0;strokeWidth=2;" edge="1" parent="1" source="challenge1" target="solution1">
          <mxGeometry width="50" height="50" relative="1" as="geometry">
            <mxPoint x="290" y="290" as="sourcePoint" />
            <mxPoint x="340" y="240" as="targetPoint" />
          </mxGeometry>
        </mxCell>
        
        <mxCell id="challenge-arrow2" value="" style="endArrow=classic;html=1;rounded=0;exitX=1;exitY=0.5;exitDx=0;exitDy=0;entryX=0;entryY=0.5;entryDx=0;entryDy=0;strokeWidth=2;" edge="1" parent="1" source="challenge2" target="solution2">
          <mxGeometry width="50" height="50" relative="1" as="geometry">
            <mxPoint x="290" y="290" as="sourcePoint" />
            <mxPoint x="340" y="240" as="targetPoint" />
          </mxGeometry>
        </mxCell>
        
        <mxCell id="challenge-arrow3" value="" style="endArrow=classic;html=1;rounded=0;exitX=1;exitY=0.5;exitDx=0;exitDy=0;entryX=0;entryY=0.5;entryDx=0;entryDy=0;strokeWidth=2;" edge="1" parent="1" source="challenge3" target="solution3">
          <mxGeometry width="50" height="50" relative="1" as="geometry">
            <mxPoint x="290" y="290" as="sourcePoint" />
            <mxPoint x="340" y="240" as="targetPoint" />
          </mxGeometry>
        </mxCell>
        
        <!-- 最佳实践 -->
        <mxCell id="best-practices-title" value="最佳实践" style="text;html=1;strokeColor=none;fillColor=none;align=center;verticalAlign=middle;whiteSpace=wrap;rounded=0;fontSize=18;fontStyle=1;" vertex="1" parent="1">
          <mxGeometry x="500" y="750" width="200" height="30" as="geometry" />
        </mxCell>
        
        <mxCell id="practice1" value="单一职责&#xa;(Single Responsibility)" style="rounded=1;whiteSpace=wrap;html=1;fillColor=#d5e8d4;strokeColor=#82b366;fontSize=12;" vertex="1" parent="1">
          <mxGeometry x="500" y="800" width="120" height="50" as="geometry" />
        </mxCell>
        
        <mxCell id="practice2" value="松耦合&#xa;(Loose Coupling)" style="rounded=1;whiteSpace=wrap;html=1;fillColor=#dae8fc;strokeColor=#6c8ebf;fontSize=12;" vertex="1" parent="1">
          <mxGeometry x="640" y="800" width="120" height="50" as="geometry" />
        </mxCell>
        
        <mxCell id="practice3" value="可扩展性&#xa;(Scalability)" style="rounded=1;whiteSpace=wrap;html=1;fillColor=#fff2cc;strokeColor=#d6b656;fontSize=12;" vertex="1" parent="1">
          <mxGeometry x="780" y="800" width="120" height="50" as="geometry" />
        </mxCell>
        
        <mxCell id="practice4" value="容错性&#xa;(Fault Tolerance)" style="rounded=1;whiteSpace=wrap;html=1;fillColor=#f8cecc;strokeColor=#b85450;fontSize=12;" vertex="1" parent="1">
          <mxGeometry x="920" y="800" width="120" height="50" as="geometry" />
        </mxCell>
        
        <!-- 监控指标 -->
        <mxCell id="monitoring-title" value="监控指标" style="text;html=1;strokeColor=none;fillColor=none;align=center;verticalAlign=middle;whiteSpace=wrap;rounded=0;fontSize=18;fontStyle=1;" vertex="1" parent="1">
          <mxGeometry x="500" y="880" width="200" height="30" as="geometry" />
        </mxCell>
        
        <mxCell id="metric1" value="响应时间&#xa;(Response Time)" style="rounded=1;whiteSpace=wrap;html=1;fillColor=#e1d5e7;strokeColor=#9673a6;fontSize=12;" vertex="1" parent="1">
          <mxGeometry x="500" y="930" width="120" height="50" as="geometry" />
        </mxCell>
        
        <mxCell id="metric2" value="吞吐量&#xa;(Throughput)" style="rounded=1;whiteSpace=wrap;html=1;fillColor=#d5e8d4;strokeColor=#82b366;fontSize=12;" vertex="1" parent="1">
          <mxGeometry x="640" y="930" width="120" height="50" as="geometry" />
        </mxCell>
        
        <mxCell id="metric3" value="错误率&#xa;(Error Rate)" style="rounded=1;whiteSpace=wrap;html=1;fillColor=#dae8fc;strokeColor=#6c8ebf;fontSize=12;" vertex="1" parent="1">
          <mxGeometry x="780" y="930" width="120" height="50" as="geometry" />
        </mxCell>
        
        <mxCell id="metric4" value="资源利用率&#xa;(Resource Usage)" style="rounded=1;whiteSpace=wrap;html=1;fillColor=#fff2cc;strokeColor=#d6b656;fontSize=12;" vertex="1" parent="1">
          <mxGeometry x="920" y="930" width="120" height="50" as="geometry" />
        </mxCell>
        
      </root>
    </mxGraphModel>
  </diagram>
</mxfile> 